<svg xmlns="http://www.w3.org/2000/svg" viewBox="0 0 210.414 210.414" width="512" height="512"><g fill="#FFF"><path d="M105.207 0C66.532 0 35.069 31.45 35.069 70.104v70.21c0 38.653 31.463 70.1 70.138 70.1 38.675 0 70.138-31.446 70.138-70.1v-70.21C175.345 31.45 143.881 0 105.207 0zm62.345 140.314c0 34.357-27.968 62.307-62.345 62.307-34.377 0-62.345-27.95-62.345-62.307v-70.21c0-34.357 27.968-62.311 62.345-62.311 34.377 0 62.345 27.953 62.345 62.311v70.21z"/><path d="M105.207 23.379a3.896 3.896 0 0 0-3.897 3.897v35.286a3.896 3.896 0 0 0 3.897 3.897 3.896 3.896 0 0 0 3.897-3.897V27.276a3.897 3.897 0 0 0-3.897-3.897z"/></g></svg>