<svg xmlns="http://www.w3.org/2000/svg" viewBox="0 0 300 300" width="512" height="512"><path d="M99.41 95.701l-3.415-12.779a191.492 191.492 0 0 0-21.841 7.277l4.929 12.274a178.713 178.713 0 0 1 20.327-6.772zm-39.696 15.94l-6.364-11.595a192.843 192.843 0 0 0-19.482 12.274l7.711 10.746a179.924 179.924 0 0 1 18.135-11.425zM0 143.421l10.054 8.593a177.975 177.975 0 0 1 14.888-15.422l-8.943-9.743A190.798 190.798 0 0 0 0 143.421zm285.464-5.323l-9.739 8.947a179.448 179.448 0 0 1 13.528 16.632L300 155.966a191.943 191.943 0 0 0-14.536-17.868zm-42.284-18.845a177.92 177.92 0 0 1 17.115 12.909l8.588-10.058a189.92 189.92 0 0 0-18.398-13.874l-7.305 11.023zm-12.644-22.566a191.219 191.219 0 0 0-21.186-9.029l-4.44 12.459a177.209 177.209 0 0 1 19.714 8.401l5.912-11.831zm-119.621 8.916l8.989.004 7.493-11.363 14.428.099-9.084 31.32v.741c0 3.955 3.218 7.175 7.173 7.175h13.032l20.681-38.354 15.984.529c8.273 0 15.005-6.492 15.005-14.467.004-3.919-1.594-7.59-4.497-10.334-2.817-2.663-6.545-4.133-10.665-4.133h-.013l-15.951.533-20.54-38.091-13.054-.004c-3.946.011-7.155 3.232-7.155 7.177v.738l9.011 31.07-14.489.126L119.9 57.23l-8.983.002c-3.69 0-6.69 3-6.69 6.688v34.996a6.692 6.692 0 0 0 6.688 6.687zm3.714-37.467h.004l7.067 10.691 33.877-.293-11.275-38.867h2.434l20.657 38.305 22.224-.743c1.281 0 2.471.459 3.353 1.29.8.756 1.239 1.737 1.239 2.766 0 2.242-2.063 4.063-4.424 4.065l-22.255-.736-20.796 38.559H144.3l11.35-39.138-33.83-.236-7.191 10.896V68.136zm56.676 88.483a118.576 118.576 0 0 0-26.309-2.974c-55.362 0-102.633 37.756-114.949 91.814a118.397 118.397 0 0 0-2.943 25.282h13.228c.057-5.262.5-10.546 1.36-15.818 7.438 1.907 15.1 4.966 17.562 6.975a141.01 141.01 0 0 1-.381 2.588c-.298 1.929-.619 4.063-.752 6.256h13.27c.139-1.499.375-3.079.553-4.241.245-1.594.487-3.181.639-4.715.822-8.306-8.597-14.948-27.96-19.76 10.651-36.33 39.447-63.355 75.16-72.107-1.968 3.805-3.553 8.513-4.215 14.469-.322 2.919-.741 5.555-1.109 7.876-1.481 9.36-3.013 19.039 9.644 24.673 7.098 3.17 12.064 3.695 16.052 4.111 1.94.203 3.65.384 5.467.849.641 2.149.317 7.4.187 9.499-.165 2.665-.333 5.385.481 7.607.809 4.541 4.166 18.924 15.305 31.734H181.5c-19.134-12.492-22.182-33.848-22.308-34.787l-.271-2.178c.026-.516.06-1.08.09-1.563.425-6.884 1.219-19.705-8.595-22.703-3.39-1.034-6.304-1.338-8.875-1.609-3.686-.388-6.867-.723-12.051-3.035-3.393-1.512-3.393-1.512-1.966-10.528.39-2.467.833-5.266 1.188-8.493 1.01-9.106 4.847-14.877 8.313-18.658 2.634-.196 5.29-.315 7.971-.315 7.814 0 15.677.888 23.373 2.641 27.292 6.218 50.531 22.689 65.43 46.378 10.098 16.057 15.532 34.128 16.059 52.605-1.1.721-2.469 1.481-3.941 2.246h17.174c-.123-21.726-6.241-43.04-18.096-61.89-16.782-26.676-42.952-45.226-73.69-52.229z" fill="#FFF"/></svg>